<svg xmlns="http://www.w3.org/2000/svg" width="24" height="24" viewBox="0 0 24 24"><defs><style>.a{fill:rgba(0,0,0,0.54);}</style></defs><path class="a" d="M23.3,2.259H19.481V.7a.7.7,0,0,0-1.406,0V2.259H14.963V.7a.7.7,0,0,0-1.406,0V2.259H10.444V.7A.7.7,0,1,0,9.038.7V2.259H5.925V.7A.7.7,0,0,0,4.519.7V2.259H.7a.7.7,0,0,0-.7.7V23.3a.7.7,0,0,0,.7.7H23.3a.7.7,0,0,0,.7-.7V2.963A.7.7,0,0,0,23.3,2.259Zm-.7,20.334H1.406V8.184H22.594Zm0-15.816H1.406V3.666H22.594Z"/><path class="a" d="M107.667,266.667a1,1,0,1,0,1,1A1,1,0,0,0,107.667,266.667Z" transform="translate(-101.667 -255.666)"/><path class="a" d="M235.667,266.667a1,1,0,1,0,1,1A1,1,0,0,0,235.667,266.667Z" transform="translate(-223.667 -255.666)"/><path class="a" d="M363.667,266.667a1,1,0,1,0,1,1A1,1,0,0,0,363.667,266.667Z" transform="translate(-345.667 -255.666)"/><path class="a" d="M107.667,373.333a1,1,0,1,0,1,1A1,1,0,0,0,107.667,373.333Z" transform="translate(-101.667 -357.332)"/><path class="a" d="M235.667,373.333a1,1,0,1,0,1,1A1,1,0,0,0,235.667,373.333Z" transform="translate(-223.667 -357.332)"/><path class="a" d="M363.667,373.333a1,1,0,1,0,1,1A1,1,0,0,0,363.667,373.333Z" transform="translate(-345.667 -357.332)"/></svg>